<svg xmlns="http://www.w3.org/2000/svg" xmlns:xlink="http://www.w3.org/1999/xlink" width="500" zoomAndPan="magnify" viewBox="0 0 375 374.999991" height="500" preserveAspectRatio="xMidYMid meet" version="1.0"><defs><g/></defs><rect x="-37.5" width="450" fill="#ffffff" y="-37.499999" height="449.999989" fill-opacity="1"/><rect x="-37.5" width="450" fill="#fff7f2" y="-37.499999" height="449.999989" fill-opacity="1"/><g fill="#253439" fill-opacity="1"><g transform="translate(86.847655, 199.276026)"><g><path d="M 40.25 -14.21875 C 40.632812 -14.289062 41.03125 -14.316406 41.4375 -14.296875 C 41.84375 -14.285156 42.238281 -14.175781 42.625 -13.96875 C 42.6875 -13.894531 42.742188 -13.78125 42.796875 -13.625 C 42.859375 -13.46875 42.90625 -13.316406 42.9375 -13.171875 C 42.9375 -13.109375 42.898438 -13.03125 42.828125 -12.9375 C 42.753906 -12.851562 42.6875 -12.769531 42.625 -12.6875 C 42.445312 -12.59375 42.269531 -12.519531 42.09375 -12.46875 C 39.800781 -12.019531 37.675781 -11.253906 35.71875 -10.171875 C 33.757812 -9.097656 31.898438 -7.859375 30.140625 -6.453125 C 27.734375 -4.578125 25.515625 -2.519531 23.484375 -0.28125 C 21.453125 1.957031 19.535156 4.296875 17.734375 6.734375 C 14.316406 11.328125 11.140625 16.09375 8.203125 21.03125 C 7.535156 22.175781 6.847656 23.296875 6.140625 24.390625 C 6.046875 24.597656 5.925781 24.789062 5.78125 24.96875 C 5.457031 25.488281 5.101562 25.984375 4.71875 26.453125 C 3.6875 27.546875 2.484375 27.8125 1.109375 27.25 C 0.546875 26.957031 0.21875 26.570312 0.125 26.09375 C 0.0390625 25.625 0.0546875 25.125 0.171875 24.59375 C 0.941406 17.632812 1.398438 10.679688 1.546875 3.734375 C 1.816406 -5.585938 1.992188 -14.910156 2.078125 -24.234375 C 2.171875 -33.554688 2.023438 -42.875 1.640625 -52.1875 C 1.398438 -57.769531 1.085938 -63.367188 0.703125 -68.984375 C 0.523438 -71.554688 0.347656 -74.132812 0.171875 -76.71875 C 0.171875 -76.925781 0.144531 -77.117188 0.09375 -77.296875 C 0.0625 -77.816406 0.046875 -78.34375 0.046875 -78.875 C 0.128906 -79.695312 0.585938 -80.15625 1.421875 -80.25 C 1.921875 -80.332031 2.363281 -80.285156 2.75 -80.109375 C 3.144531 -79.929688 3.375 -79.664062 3.4375 -79.3125 C 3.757812 -78 3.992188 -76.675781 4.140625 -75.34375 C 4.140625 -74.957031 4.15625 -74.5625 4.1875 -74.15625 C 4.71875 -66.894531 5.175781 -59.628906 5.5625 -52.359375 C 5.945312 -45.148438 6.128906 -37.929688 6.109375 -30.703125 C 6.097656 -23.484375 6.003906 -16.257812 5.828125 -9.03125 C 5.710938 -3.101562 5.550781 2.828125 5.34375 8.765625 C 5.3125 10.140625 5.238281 11.507812 5.125 12.875 C 5.0625 13.664062 5.015625 14.445312 4.984375 15.21875 C 4.953125 15.882812 4.910156 16.570312 4.859375 17.28125 C 4.859375 17.601562 4.84375 17.925781 4.8125 18.25 C 4.925781 18.28125 5.015625 18.3125 5.078125 18.34375 C 5.191406 18.34375 5.296875 18.359375 5.390625 18.390625 C 5.566406 18.117188 5.742188 17.851562 5.921875 17.59375 C 6.390625 16.851562 6.867188 16.113281 7.359375 15.375 C 10.640625 10.144531 14.257812 5.1875 18.21875 0.5 C 20.226562 -1.875 22.367188 -4.070312 24.640625 -6.09375 C 26.921875 -8.125 29.421875 -9.921875 32.140625 -11.484375 C 33.421875 -12.191406 34.722656 -12.789062 36.046875 -13.28125 C 37.367188 -13.769531 38.769531 -14.082031 40.25 -14.21875 Z M 40.25 -14.21875 "/></g></g></g><g fill="#253439" fill-opacity="1"><g transform="translate(125.812004, 199.276026)"><g><path d="M 27.234375 -12.359375 C 26.796875 -11.015625 25.921875 -9.472656 24.609375 -7.734375 C 23.304688 -5.992188 21.675781 -4.875 19.71875 -4.375 C 17.757812 -3.882812 16.066406 -3.953125 14.640625 -4.578125 C 13.210938 -5.210938 12.425781 -6.910156 12.28125 -9.671875 C 10.65625 -6.523438 9.109375 -4.507812 7.640625 -3.625 C 6.171875 -2.75 4.644531 -2.414062 3.0625 -2.625 C 1.257812 -2.914062 0.0390625 -3.613281 -0.59375 -4.71875 C -1.226562 -5.820312 -1.441406 -7.097656 -1.234375 -8.546875 C -1.023438 -10.003906 -0.582031 -11.398438 0.09375 -12.734375 C 0.625 -13.722656 1.359375 -14.644531 2.296875 -15.5 C 3.234375 -16.351562 4.21875 -17.019531 5.25 -17.5 C 6.519531 -18.144531 7.796875 -18.445312 9.078125 -18.40625 C 10.359375 -18.375 11.726562 -17.953125 13.1875 -17.140625 C 13.21875 -17.109375 13.234375 -17.140625 13.234375 -17.234375 C 13.234375 -17.378906 13.269531 -17.554688 13.34375 -17.765625 C 13.414062 -17.984375 13.539062 -18.160156 13.71875 -18.296875 C 14.195312 -18.648438 14.765625 -18.828125 15.421875 -18.828125 C 16.085938 -18.828125 16.597656 -18.5 16.953125 -17.84375 C 17.015625 -16.988281 16.925781 -15.90625 16.6875 -14.59375 C 16.15625 -11.695312 16.148438 -9.613281 16.671875 -8.34375 C 17.203125 -7.082031 18.140625 -6.492188 19.484375 -6.578125 C 20.828125 -6.671875 22.5625 -7.992188 24.6875 -10.546875 C 26.820312 -13.109375 27.671875 -13.710938 27.234375 -12.359375 Z M 3.53125 -5.578125 C 4.269531 -5.054688 5.117188 -5.128906 6.078125 -5.796875 C 7.035156 -6.472656 7.953125 -7.425781 8.828125 -8.65625 C 9.710938 -9.894531 10.457031 -11.128906 11.0625 -12.359375 C 11.664062 -13.597656 12 -14.515625 12.0625 -15.109375 C 10.257812 -16.078125 8.71875 -16.242188 7.4375 -15.609375 C 6.15625 -14.972656 5.128906 -13.9375 4.359375 -12.5 C 3.597656 -11.0625 3.144531 -9.664062 3 -8.3125 C 2.863281 -6.957031 3.039062 -6.046875 3.53125 -5.578125 Z M 3.53125 -5.578125 "/></g></g></g><g fill="#253439" fill-opacity="1"><g transform="translate(151.322943, 199.276026)"><g><path d="M 18.75 -11.796875 C 19.019531 -11.941406 19.242188 -12 19.421875 -11.96875 C 19.597656 -11.945312 19.726562 -11.875 19.8125 -11.75 C 19.90625 -11.632812 19.953125 -11.515625 19.953125 -11.390625 C 19.953125 -11.273438 19.9375 -11.191406 19.90625 -11.140625 C 19.226562 -10.429688 18.488281 -9.675781 17.6875 -8.875 C 16.601562 -7.820312 15.519531 -6.738281 14.4375 -5.625 C 13.351562 -4.507812 12.441406 -3.460938 11.703125 -2.484375 C 11.316406 -2.015625 11.332031 -1.570312 11.75 -1.15625 C 12.457031 -0.363281 13.117188 0.707031 13.734375 2.0625 C 14.347656 3.414062 14.785156 4.863281 15.046875 6.40625 C 15.316406 7.945312 15.285156 9.34375 14.953125 10.59375 C 14.628906 11.84375 13.847656 12.734375 12.609375 13.265625 C 10.703125 13.941406 8.96875 13.789062 7.40625 12.8125 C 5.851562 11.84375 4.957031 10.347656 4.71875 8.328125 C 4.601562 6.460938 4.972656 4.679688 5.828125 2.984375 C 6.148438 2.304688 6.503906 1.65625 6.890625 1.03125 C 7.097656 0.632812 7.289062 0.257812 7.46875 -0.09375 C 7.851562 -0.71875 7.710938 -1.175781 7.046875 -1.46875 C 5.765625 -2.0625 4.457031 -2.269531 3.125 -2.09375 C 2.28125 -1.914062 1.445312 -1.957031 0.625 -2.21875 C 0.382812 -2.34375 0.226562 -2.519531 0.15625 -2.75 C 0.0820312 -2.988281 0.132812 -3.210938 0.3125 -3.421875 C 0.925781 -4.023438 1.546875 -4.609375 2.171875 -5.171875 C 3.722656 -6.472656 5.160156 -8.023438 6.484375 -9.828125 C 7.804688 -11.640625 8.804688 -13.53125 9.484375 -15.5 C 9.546875 -15.738281 9.523438 -15.972656 9.421875 -16.203125 C 9.316406 -16.441406 9.160156 -16.632812 8.953125 -16.78125 C 8.390625 -17.195312 7.753906 -17.390625 7.046875 -17.359375 C 5.847656 -17.273438 4.765625 -16.878906 3.796875 -16.171875 C 3.171875 -15.722656 2.898438 -15.296875 2.984375 -14.890625 C 3.078125 -14.484375 3.300781 -14.066406 3.65625 -13.640625 C 3.925781 -13.296875 4.175781 -12.929688 4.40625 -12.546875 C 4.4375 -12.398438 4.378906 -12.238281 4.234375 -12.0625 C 4.085938 -11.882812 3.910156 -11.726562 3.703125 -11.59375 C 3.492188 -11.46875 3.300781 -11.390625 3.125 -11.359375 C 2.457031 -11.210938 1.84375 -11.375 1.28125 -11.84375 C 0.488281 -12.550781 0.078125 -13.390625 0.046875 -14.359375 C 0.015625 -15.328125 0.367188 -16.179688 1.109375 -16.921875 C 1.640625 -17.390625 2.207031 -17.757812 2.8125 -18.03125 C 3.875 -18.5625 4.945312 -18.867188 6.03125 -18.953125 C 7.125 -19.046875 8.257812 -19.003906 9.4375 -18.828125 C 10.0625 -18.691406 10.679688 -18.445312 11.296875 -18.09375 C 12.617188 -17.3125 13.054688 -16.164062 12.609375 -14.65625 C 12.078125 -13.132812 11.242188 -11.535156 10.109375 -9.859375 C 8.984375 -8.179688 7.875 -6.796875 6.78125 -5.703125 C 6.644531 -5.554688 6.519531 -5.453125 6.40625 -5.390625 C 6.164062 -5.128906 5.972656 -4.910156 5.828125 -4.734375 C 5.679688 -4.566406 5.625 -4.394531 5.65625 -4.21875 C 6.445312 -4.289062 7.117188 -4.226562 7.671875 -4.03125 C 8.234375 -3.832031 8.765625 -3.554688 9.265625 -3.203125 C 9.617188 -3.285156 10.15625 -3.671875 10.875 -4.359375 C 11.601562 -5.046875 12.421875 -5.863281 13.328125 -6.8125 C 14.296875 -7.84375 15.253906 -8.8125 16.203125 -9.71875 C 17.160156 -10.632812 18.007812 -11.328125 18.75 -11.796875 Z M 9.484375 11.8125 C 10.515625 12.25 11.175781 12.085938 11.46875 11.328125 C 11.769531 10.566406 11.859375 9.519531 11.734375 8.1875 C 11.609375 6.863281 11.394531 5.601562 11.09375 4.40625 C 10.789062 3.21875 10.535156 2.390625 10.328125 1.921875 C 10.210938 1.742188 10.09375 1.570312 9.96875 1.40625 C 9.851562 1.25 9.648438 1.125 9.359375 1.03125 C 8.023438 2.800781 7.253906 4.789062 7.046875 7 C 6.941406 8.0625 7.113281 9.023438 7.5625 9.890625 C 8.019531 10.753906 8.660156 11.394531 9.484375 11.8125 Z M 9.484375 11.8125 "/></g></g></g><g fill="#253439" fill-opacity="1"><g transform="translate(169.252801, 199.276026)"><g><path d="M 18.484375 -13.171875 C 18.722656 -13.410156 18.847656 -13.113281 18.859375 -12.28125 C 18.878906 -11.457031 18.128906 -10.300781 16.609375 -8.8125 C 15.097656 -7.332031 13.535156 -6.632812 11.921875 -6.71875 C 11.566406 -6.75 11.265625 -6.71875 11.015625 -6.625 C 10.765625 -6.539062 10.550781 -6.335938 10.375 -6.015625 C 10.195312 -5.722656 9.988281 -5.457031 9.75 -5.21875 C 9.75 -5.21875 9.734375 -5.203125 9.703125 -5.171875 C 8.703125 -4.117188 7.53125 -3.421875 6.1875 -3.078125 C 4.851562 -2.742188 3.582031 -2.847656 2.375 -3.390625 C 1.175781 -3.941406 0.3125 -4.976562 -0.21875 -6.5 C -0.601562 -7.875 -0.632812 -9.242188 -0.3125 -10.609375 C -0.0390625 -11.816406 0.398438 -12.953125 1.015625 -14.015625 C 1.753906 -15.421875 2.710938 -16.414062 3.890625 -17 C 5.066406 -17.59375 6.398438 -17.921875 7.890625 -17.984375 C 10.109375 -18.097656 11.503906 -17.054688 12.078125 -14.859375 C 12.429688 -13.585938 12.519531 -12.300781 12.34375 -11 C 12.300781 -10.707031 12.25 -10.398438 12.1875 -10.078125 C 12.113281 -9.867188 12.054688 -9.660156 12.015625 -9.453125 C 11.953125 -8.753906 12.253906 -8.4375 12.921875 -8.5 C 14.785156 -8.820312 16.640625 -10.378906 18.484375 -13.171875 Z M 5.390625 -4.953125 C 6.523438 -5.484375 7.320312 -6.382812 7.78125 -7.65625 C 5.882812 -8.851562 4.613281 -10.585938 3.96875 -12.859375 C 3.375 -11.796875 3.015625 -10.554688 2.890625 -9.140625 C 2.765625 -7.734375 2.90625 -6.566406 3.3125 -5.640625 C 3.71875 -4.722656 4.410156 -4.492188 5.390625 -4.953125 Z M 8.640625 -10.15625 C 8.941406 -10.601562 9.117188 -11.15625 9.171875 -11.8125 C 9.234375 -12.476562 9.203125 -13.132812 9.078125 -13.78125 C 8.960938 -14.425781 8.796875 -14.929688 8.578125 -15.296875 C 8.359375 -15.671875 8.128906 -15.785156 7.890625 -15.640625 C 7.460938 -15.253906 7.222656 -14.703125 7.171875 -13.984375 C 7.117188 -13.265625 7.222656 -12.539062 7.484375 -11.8125 C 7.753906 -11.09375 8.140625 -10.539062 8.640625 -10.15625 Z M 8.640625 -10.15625 "/></g></g></g><g fill="#253439" fill-opacity="1"><g transform="translate(187.182659, 199.276026)"><g><path d="M 19.90625 -9.265625 C 21.144531 -11.222656 21.878906 -12.46875 22.109375 -13 C 22.335938 -13.53125 22.519531 -13.503906 22.65625 -12.921875 C 22.800781 -12.347656 22.40625 -11.046875 21.46875 -9.015625 C 20.539062 -6.984375 19.382812 -5.414062 18 -4.3125 C 16.625 -3.21875 15.335938 -2.8125 14.140625 -3.09375 C 12.941406 -3.382812 12.085938 -4.21875 11.578125 -5.59375 C 11.066406 -6.96875 10.914062 -8.695312 11.125 -10.78125 C 11.125 -10.8125 11.140625 -10.898438 11.171875 -11.046875 C 11.203125 -11.398438 11.257812 -11.921875 11.34375 -12.609375 C 11.4375 -13.296875 11.503906 -14.007812 11.546875 -14.75 C 11.585938 -15.488281 11.5625 -16.097656 11.46875 -16.578125 C 11.382812 -17.066406 11.164062 -17.238281 10.8125 -17.09375 C 9.957031 -16.625 9.125 -15.710938 8.3125 -14.359375 C 7.5 -13.003906 6.765625 -11.582031 6.109375 -10.09375 C 5.453125 -8.613281 4.988281 -7.414062 4.71875 -6.5 C 4.601562 -6.207031 4.5 -5.898438 4.40625 -5.578125 C 4.257812 -5.160156 4.097656 -4.742188 3.921875 -4.328125 C 3.453125 -3.128906 2.644531 -2.664062 1.5 -2.9375 C 0.851562 -3.082031 0.472656 -3.472656 0.359375 -4.109375 C 0.328125 -4.609375 0.3125 -5.082031 0.3125 -5.53125 C 0.3125 -5.820312 0.296875 -6.085938 0.265625 -6.328125 C 0.203125 -9.890625 0.113281 -13.476562 0 -17.09375 C 0.03125 -17.507812 0.210938 -17.796875 0.546875 -17.953125 C 0.890625 -18.117188 1.289062 -18.203125 1.75 -18.203125 C 2.101562 -18.203125 2.4375 -18.101562 2.75 -17.90625 C 3.0625 -17.71875 3.257812 -17.316406 3.34375 -16.703125 C 3.375 -16.492188 3.390625 -16.285156 3.390625 -16.078125 C 3.421875 -15.960938 3.4375 -15.859375 3.4375 -15.765625 C 3.5 -15.265625 3.53125 -14.835938 3.53125 -14.484375 C 3.53125 -13.960938 3.566406 -13.601562 3.640625 -13.40625 C 3.710938 -13.21875 3.863281 -13.226562 4.09375 -13.4375 C 4.332031 -13.644531 4.71875 -14.140625 5.25 -14.921875 C 6.164062 -16.335938 7.296875 -17.535156 8.640625 -18.515625 C 9.878906 -19.390625 11.234375 -19.757812 12.703125 -19.625 C 13.972656 -19.488281 14.828125 -18.820312 15.265625 -17.625 C 15.441406 -17.007812 15.53125 -16.394531 15.53125 -15.78125 C 15.53125 -15.164062 15.488281 -14.539062 15.40625 -13.90625 C 15.375 -13.269531 15.328125 -12.613281 15.265625 -11.9375 C 15.210938 -11.726562 15.171875 -11.519531 15.140625 -11.3125 C 14.929688 -9.019531 15.003906 -7.484375 15.359375 -6.703125 C 15.710938 -5.921875 16.25 -5.660156 16.96875 -5.921875 C 17.6875 -6.191406 18.664062 -7.304688 19.90625 -9.265625 Z M 19.90625 -9.265625 "/></g></g></g><g fill="#253439" fill-opacity="1"><g transform="translate(208.361551, 199.276026)"><g><path d="M 17.671875 -11.578125 C 18.546875 -12.429688 18.921875 -12.644531 18.796875 -12.21875 C 18.679688 -11.789062 18.195312 -11.019531 17.34375 -9.90625 C 16.5 -8.789062 15.441406 -7.582031 14.171875 -6.28125 C 12.910156 -4.976562 11.570312 -3.847656 10.15625 -2.890625 C 8.75 -1.941406 7.410156 -1.425781 6.140625 -1.34375 C 4.578125 -1.34375 3.328125 -1.800781 2.390625 -2.71875 C 1.453125 -3.644531 0.78125 -4.867188 0.375 -6.390625 C -0.0195312 -7.910156 -0.1875 -9.550781 -0.125 -11.3125 C -0.0390625 -13.289062 0.03125 -15.265625 0.09375 -17.234375 C 0.125 -18.234375 0.15625 -19.203125 0.1875 -20.140625 C 0.269531 -21.734375 0.328125 -23.320312 0.359375 -24.90625 C 0.390625 -25.40625 0.304688 -25.820312 0.109375 -26.15625 C -0.078125 -26.5 -0.421875 -26.6875 -0.921875 -26.71875 C -1.472656 -26.75 -2.175781 -26.765625 -3.03125 -26.765625 C -3.769531 -26.765625 -4.40625 -26.765625 -4.9375 -26.765625 C -5.675781 -26.847656 -6.164062 -27.046875 -6.40625 -27.359375 C -6.65625 -27.671875 -6.460938 -27.988281 -5.828125 -28.3125 C -5.378906 -28.488281 -4.835938 -28.582031 -4.203125 -28.59375 C -3.566406 -28.613281 -2.941406 -28.609375 -2.328125 -28.578125 C -1.941406 -28.546875 -1.609375 -28.53125 -1.328125 -28.53125 C -0.378906 -28.53125 0.195312 -28.675781 0.40625 -28.96875 C 0.613281 -29.269531 0.742188 -29.859375 0.796875 -30.734375 C 0.859375 -31.671875 0.90625 -32.609375 0.9375 -33.546875 C 0.96875 -34.046875 1.007812 -34.546875 1.0625 -35.046875 C 1.0625 -35.785156 1.253906 -36.453125 1.640625 -37.046875 C 2.054688 -37.609375 2.582031 -37.820312 3.21875 -37.6875 C 3.78125 -37.550781 4.097656 -37.203125 4.171875 -36.640625 C 4.210938 -35.703125 4.234375 -34.757812 4.234375 -33.8125 C 4.265625 -33.289062 4.265625 -32.765625 4.234375 -32.234375 C 4.234375 -31.671875 4.25 -31.082031 4.28125 -30.46875 C 4.25 -29.632812 4.34375 -29.109375 4.5625 -28.890625 C 4.789062 -28.679688 5.347656 -28.578125 6.234375 -28.578125 C 7.679688 -28.578125 9.109375 -28.578125 10.515625 -28.578125 C 11.160156 -28.578125 13.070312 -28.617188 16.25 -28.703125 C 19.425781 -28.796875 21.140625 -28.539062 21.390625 -27.9375 C 21.640625 -27.332031 19.628906 -26.984375 15.359375 -26.890625 C 12.773438 -26.742188 10.773438 -26.671875 9.359375 -26.671875 C 8.410156 -26.703125 7.5625 -26.71875 6.8125 -26.71875 C 5.539062 -26.71875 4.753906 -26.492188 4.453125 -26.046875 C 4.160156 -25.609375 4.03125 -24.722656 4.0625 -23.390625 C 4.03125 -22.253906 3.976562 -20.875 3.90625 -19.25 C 3.695312 -15.9375 3.59375 -12.550781 3.59375 -9.09375 C 3.664062 -6.71875 4.085938 -5.175781 4.859375 -4.46875 C 5.628906 -3.769531 6.628906 -3.640625 7.859375 -4.078125 C 9.097656 -4.515625 10.4375 -5.300781 11.875 -6.4375 C 13.3125 -7.570312 14.738281 -8.785156 16.15625 -10.078125 C 16.457031 -10.484375 16.828125 -10.863281 17.265625 -11.21875 C 17.398438 -11.34375 17.535156 -11.460938 17.671875 -11.578125 Z M 17.671875 -11.578125 "/></g></g></g><g fill="#253439" fill-opacity="1"><g transform="translate(225.713803, 199.276026)"><g><path d="M 23.203125 -11.625 C 23.554688 -11.832031 23.898438 -11.992188 24.234375 -12.109375 C 24.578125 -12.222656 24.800781 -12.210938 24.90625 -12.078125 C 25.007812 -11.953125 24.867188 -11.664062 24.484375 -11.21875 C 23.273438 -9.832031 21.832031 -8.566406 20.15625 -7.421875 C 18.476562 -6.273438 16.757812 -5.3125 15 -4.53125 C 13.613281 -3.90625 12.15625 -3.40625 10.625 -3.03125 C 9.09375 -2.664062 7.578125 -2.585938 6.078125 -2.796875 C 4.578125 -3.003906 3.207031 -3.671875 1.96875 -4.796875 C 0.09375 -6.523438 -0.679688 -8.640625 -0.359375 -11.140625 C -0.0859375 -13.128906 0.679688 -14.816406 1.953125 -16.203125 C 3.234375 -17.597656 4.84375 -18.546875 6.78125 -19.046875 C 8.40625 -19.390625 10.03125 -19.425781 11.65625 -19.15625 C 12.382812 -19.039062 13.054688 -18.796875 13.671875 -18.421875 C 14.234375 -17.984375 14.539062 -17.472656 14.59375 -16.890625 C 14.65625 -16.316406 14.4375 -15.765625 13.9375 -15.234375 C 12.90625 -14.316406 11.71875 -13.769531 10.375 -13.59375 C 8.863281 -13.34375 7.347656 -13.1875 5.828125 -13.125 C 5.085938 -13.125 4.566406 -12.96875 4.265625 -12.65625 C 3.972656 -12.351562 3.800781 -11.832031 3.75 -11.09375 C 3.507812 -9.09375 4.15625 -7.457031 5.6875 -6.1875 C 6.625 -5.4375 7.769531 -5.113281 9.125 -5.21875 C 10.488281 -5.332031 11.929688 -5.695312 13.453125 -6.3125 C 14.984375 -6.9375 16.476562 -7.660156 17.9375 -8.484375 C 19.394531 -9.304688 20.707031 -10.085938 21.875 -10.828125 C 22.375 -11.148438 22.816406 -11.414062 23.203125 -11.625 Z M 6.46875 -15.90625 C 6.46875 -15.875 6.445312 -15.859375 6.40625 -15.859375 C 6.34375 -15.796875 6.257812 -15.71875 6.15625 -15.625 C 6.050781 -15.539062 5.953125 -15.453125 5.859375 -15.359375 C 5.773438 -15.273438 5.734375 -15.21875 5.734375 -15.1875 C 5.765625 -15.070312 6.050781 -15.039062 6.59375 -15.09375 C 7.132812 -15.15625 7.734375 -15.253906 8.390625 -15.390625 C 9.054688 -15.523438 9.609375 -15.707031 10.046875 -15.9375 C 10.492188 -16.175781 10.628906 -16.457031 10.453125 -16.78125 C 10.367188 -16.875 10.265625 -16.957031 10.140625 -17.03125 C 10.023438 -17.101562 9.894531 -17.15625 9.75 -17.1875 C 9.101562 -17.1875 8.515625 -17.0625 7.984375 -16.8125 C 7.460938 -16.5625 6.957031 -16.257812 6.46875 -15.90625 Z M 6.46875 -15.90625 "/></g></g></g><g fill="#253439" fill-opacity="1"><g transform="translate(249.010585, 199.276026)"><g><path d="M 18.75 -11.796875 C 19.019531 -11.941406 19.242188 -12 19.421875 -11.96875 C 19.597656 -11.945312 19.726562 -11.875 19.8125 -11.75 C 19.90625 -11.632812 19.953125 -11.515625 19.953125 -11.390625 C 19.953125 -11.273438 19.9375 -11.191406 19.90625 -11.140625 C 19.226562 -10.429688 18.488281 -9.675781 17.6875 -8.875 C 16.601562 -7.820312 15.519531 -6.738281 14.4375 -5.625 C 13.351562 -4.507812 12.441406 -3.460938 11.703125 -2.484375 C 11.316406 -2.015625 11.332031 -1.570312 11.75 -1.15625 C 12.457031 -0.363281 13.117188 0.707031 13.734375 2.0625 C 14.347656 3.414062 14.785156 4.863281 15.046875 6.40625 C 15.316406 7.945312 15.285156 9.34375 14.953125 10.59375 C 14.628906 11.84375 13.847656 12.734375 12.609375 13.265625 C 10.703125 13.941406 8.96875 13.789062 7.40625 12.8125 C 5.851562 11.84375 4.957031 10.347656 4.71875 8.328125 C 4.601562 6.460938 4.972656 4.679688 5.828125 2.984375 C 6.148438 2.304688 6.503906 1.65625 6.890625 1.03125 C 7.097656 0.632812 7.289062 0.257812 7.46875 -0.09375 C 7.851562 -0.71875 7.710938 -1.175781 7.046875 -1.46875 C 5.765625 -2.0625 4.457031 -2.269531 3.125 -2.09375 C 2.28125 -1.914062 1.445312 -1.957031 0.625 -2.21875 C 0.382812 -2.34375 0.226562 -2.519531 0.15625 -2.75 C 0.0820312 -2.988281 0.132812 -3.210938 0.3125 -3.421875 C 0.925781 -4.023438 1.546875 -4.609375 2.171875 -5.171875 C 3.722656 -6.472656 5.160156 -8.023438 6.484375 -9.828125 C 7.804688 -11.640625 8.804688 -13.53125 9.484375 -15.5 C 9.546875 -15.738281 9.523438 -15.972656 9.421875 -16.203125 C 9.316406 -16.441406 9.160156 -16.632812 8.953125 -16.78125 C 8.390625 -17.195312 7.753906 -17.390625 7.046875 -17.359375 C 5.847656 -17.273438 4.765625 -16.878906 3.796875 -16.171875 C 3.171875 -15.722656 2.898438 -15.296875 2.984375 -14.890625 C 3.078125 -14.484375 3.300781 -14.066406 3.65625 -13.640625 C 3.925781 -13.296875 4.175781 -12.929688 4.40625 -12.546875 C 4.4375 -12.398438 4.378906 -12.238281 4.234375 -12.0625 C 4.085938 -11.882812 3.910156 -11.726562 3.703125 -11.59375 C 3.492188 -11.46875 3.300781 -11.390625 3.125 -11.359375 C 2.457031 -11.210938 1.84375 -11.375 1.28125 -11.84375 C 0.488281 -12.550781 0.078125 -13.390625 0.046875 -14.359375 C 0.015625 -15.328125 0.367188 -16.179688 1.109375 -16.921875 C 1.640625 -17.390625 2.207031 -17.757812 2.8125 -18.03125 C 3.875 -18.5625 4.945312 -18.867188 6.03125 -18.953125 C 7.125 -19.046875 8.257812 -19.003906 9.4375 -18.828125 C 10.0625 -18.691406 10.679688 -18.445312 11.296875 -18.09375 C 12.617188 -17.3125 13.054688 -16.164062 12.609375 -14.65625 C 12.078125 -13.132812 11.242188 -11.535156 10.109375 -9.859375 C 8.984375 -8.179688 7.875 -6.796875 6.78125 -5.703125 C 6.644531 -5.554688 6.519531 -5.453125 6.40625 -5.390625 C 6.164062 -5.128906 5.972656 -4.910156 5.828125 -4.734375 C 5.679688 -4.566406 5.625 -4.394531 5.65625 -4.21875 C 6.445312 -4.289062 7.117188 -4.226562 7.671875 -4.03125 C 8.234375 -3.832031 8.765625 -3.554688 9.265625 -3.203125 C 9.617188 -3.285156 10.15625 -3.671875 10.875 -4.359375 C 11.601562 -5.046875 12.421875 -5.863281 13.328125 -6.8125 C 14.296875 -7.84375 15.253906 -8.8125 16.203125 -9.71875 C 17.160156 -10.632812 18.007812 -11.328125 18.75 -11.796875 Z M 9.484375 11.8125 C 10.515625 12.25 11.175781 12.085938 11.46875 11.328125 C 11.769531 10.566406 11.859375 9.519531 11.734375 8.1875 C 11.609375 6.863281 11.394531 5.601562 11.09375 4.40625 C 10.789062 3.21875 10.535156 2.390625 10.328125 1.921875 C 10.210938 1.742188 10.09375 1.570312 9.96875 1.40625 C 9.851562 1.25 9.648438 1.125 9.359375 1.03125 C 8.023438 2.800781 7.253906 4.789062 7.046875 7 C 6.941406 8.0625 7.113281 9.023438 7.5625 9.890625 C 8.019531 10.753906 8.660156 11.394531 9.484375 11.8125 Z M 9.484375 11.8125 "/></g></g></g><g fill="#253439" fill-opacity="1"><g transform="translate(169.725507, 228.341001)"><g><path d="M 6.8125 0.171875 C 5.988281 0.171875 5.21875 0.015625 4.5 -0.296875 C 3.78125 -0.609375 3.148438 -1.039062 2.609375 -1.59375 C 2.078125 -2.144531 1.65625 -2.789062 1.34375 -3.53125 C 1.039062 -4.269531 0.890625 -5.066406 0.890625 -5.921875 C 0.890625 -6.773438 1.046875 -7.578125 1.359375 -8.328125 C 1.679688 -9.085938 2.109375 -9.75 2.640625 -10.3125 C 3.179688 -10.875 3.816406 -11.316406 4.546875 -11.640625 C 5.273438 -11.960938 6.046875 -12.125 6.859375 -12.125 C 7.753906 -12.125 8.585938 -11.9375 9.359375 -11.5625 C 10.128906 -11.1875 10.796875 -10.675781 11.359375 -10.03125 L 10.40625 -9.234375 C 9.945312 -9.765625 9.410156 -10.171875 8.796875 -10.453125 C 8.179688 -10.742188 7.53125 -10.890625 6.84375 -10.890625 C 6.175781 -10.890625 5.5625 -10.765625 5 -10.515625 C 4.445312 -10.265625 3.960938 -9.921875 3.546875 -9.484375 C 3.128906 -9.046875 2.804688 -8.523438 2.578125 -7.921875 C 2.347656 -7.328125 2.234375 -6.675781 2.234375 -5.96875 C 2.234375 -5.269531 2.347656 -4.617188 2.578125 -4.015625 C 2.804688 -3.421875 3.128906 -2.898438 3.546875 -2.453125 C 3.960938 -2.015625 4.457031 -1.671875 5.03125 -1.421875 C 5.601562 -1.171875 6.21875 -1.046875 6.875 -1.046875 C 7.625 -1.046875 8.304688 -1.191406 8.921875 -1.484375 C 9.535156 -1.785156 10.050781 -2.1875 10.46875 -2.6875 L 10.46875 -5.265625 L 6.859375 -5.265625 L 6.859375 -6.421875 L 11.71875 -6.421875 L 11.71875 -2.453125 C 11.132812 -1.609375 10.414062 -0.957031 9.5625 -0.5 C 8.71875 -0.0507812 7.800781 0.171875 6.8125 0.171875 Z M 6.8125 0.171875 "/></g></g></g><g fill="#253439" fill-opacity="1"><g transform="translate(184.466949, 228.341001)"><g><path d="M 5.078125 -12.296875 L 5.4375 -12.296875 L 9.984375 0 L 8.609375 0 L 7.484375 -3.140625 L 2.953125 -3.140625 L 1.84375 0 L 0.53125 0 Z M 7.078125 -4.296875 L 5.21875 -9.46875 L 3.375 -4.296875 Z M 7.078125 -4.296875 "/></g></g></g><g fill="#253439" fill-opacity="1"><g transform="translate(196.855601, 228.341001)"><g><path d="M 1.609375 -11.9375 L 4.453125 -11.9375 C 5.046875 -11.9375 5.59375 -11.847656 6.09375 -11.671875 C 6.601562 -11.503906 7.039062 -11.265625 7.40625 -10.953125 C 7.769531 -10.640625 8.050781 -10.269531 8.25 -9.84375 C 8.457031 -9.414062 8.5625 -8.945312 8.5625 -8.4375 C 8.5625 -8.019531 8.492188 -7.628906 8.359375 -7.265625 C 8.234375 -6.898438 8.050781 -6.570312 7.8125 -6.28125 C 7.570312 -5.988281 7.285156 -5.738281 6.953125 -5.53125 C 6.617188 -5.320312 6.253906 -5.164062 5.859375 -5.0625 L 9.265625 0 L 7.765625 0 L 4.453125 -4.921875 L 2.859375 -4.921875 L 2.859375 0 L 1.609375 0 Z M 4.453125 -6.078125 C 5.304688 -6.078125 5.992188 -6.289062 6.515625 -6.71875 C 7.046875 -7.144531 7.3125 -7.722656 7.3125 -8.453125 C 7.3125 -9.160156 7.046875 -9.722656 6.515625 -10.140625 C 5.992188 -10.566406 5.304688 -10.78125 4.453125 -10.78125 L 2.859375 -10.78125 L 2.859375 -6.078125 Z M 4.453125 -6.078125 "/></g></g></g><g fill="#253439" fill-opacity="1"><g transform="translate(208.709528, 228.341001)"><g><path d="M 1.609375 -11.9375 L 5.515625 -11.9375 C 6.421875 -11.9375 7.257812 -11.785156 8.03125 -11.484375 C 8.8125 -11.191406 9.484375 -10.78125 10.046875 -10.25 C 10.609375 -9.71875 11.050781 -9.082031 11.375 -8.34375 C 11.695312 -7.613281 11.859375 -6.820312 11.859375 -5.96875 C 11.859375 -5.113281 11.695312 -4.320312 11.375 -3.59375 C 11.050781 -2.863281 10.609375 -2.234375 10.046875 -1.703125 C 9.484375 -1.171875 8.8125 -0.753906 8.03125 -0.453125 C 7.257812 -0.148438 6.421875 0 5.515625 0 L 1.609375 0 Z M 5.484375 -1.15625 C 6.210938 -1.15625 6.882812 -1.273438 7.5 -1.515625 C 8.125 -1.753906 8.65625 -2.085938 9.09375 -2.515625 C 9.539062 -2.941406 9.890625 -3.445312 10.140625 -4.03125 C 10.390625 -4.625 10.515625 -5.269531 10.515625 -5.96875 C 10.515625 -6.675781 10.390625 -7.320312 10.140625 -7.90625 C 9.890625 -8.5 9.539062 -9.007812 9.09375 -9.4375 C 8.65625 -9.863281 8.125 -10.191406 7.5 -10.421875 C 6.882812 -10.660156 6.210938 -10.78125 5.484375 -10.78125 L 2.859375 -10.78125 L 2.859375 -1.15625 Z M 5.484375 -1.15625 "/></g></g></g><g fill="#253439" fill-opacity="1"><g transform="translate(223.326207, 228.341001)"><g><path d="M 2.8125 -9.28125 L 2.8125 0 L 1.609375 0 L 1.609375 -12.296875 L 1.96875 -12.296875 L 10.015625 -2.65625 L 10.015625 -11.9375 L 11.234375 -11.9375 L 11.234375 0.359375 L 10.875 0.359375 Z M 2.8125 -9.28125 "/></g></g></g><g fill="#253439" fill-opacity="1"><g transform="translate(238.032001, 228.341001)"><g><path d="M 1.609375 -11.9375 L 7.75 -11.9375 L 7.75 -10.78125 L 2.859375 -10.78125 L 2.859375 -6.78125 L 6.59375 -6.78125 L 6.59375 -5.609375 L 2.859375 -5.609375 L 2.859375 -1.15625 L 7.84375 -1.15625 L 7.84375 0 L 1.609375 0 Z M 1.609375 -11.9375 "/></g></g></g><g fill="#253439" fill-opacity="1"><g transform="translate(248.816478, 228.341001)"><g><path d="M 1.609375 -11.9375 L 4.453125 -11.9375 C 5.046875 -11.9375 5.59375 -11.847656 6.09375 -11.671875 C 6.601562 -11.503906 7.039062 -11.265625 7.40625 -10.953125 C 7.769531 -10.640625 8.050781 -10.269531 8.25 -9.84375 C 8.457031 -9.414062 8.5625 -8.945312 8.5625 -8.4375 C 8.5625 -8.019531 8.492188 -7.628906 8.359375 -7.265625 C 8.234375 -6.898438 8.050781 -6.570312 7.8125 -6.28125 C 7.570312 -5.988281 7.285156 -5.738281 6.953125 -5.53125 C 6.617188 -5.320312 6.253906 -5.164062 5.859375 -5.0625 L 9.265625 0 L 7.765625 0 L 4.453125 -4.921875 L 2.859375 -4.921875 L 2.859375 0 L 1.609375 0 Z M 4.453125 -6.078125 C 5.304688 -6.078125 5.992188 -6.289062 6.515625 -6.71875 C 7.046875 -7.144531 7.3125 -7.722656 7.3125 -8.453125 C 7.3125 -9.160156 7.046875 -9.722656 6.515625 -10.140625 C 5.992188 -10.566406 5.304688 -10.78125 4.453125 -10.78125 L 2.859375 -10.78125 L 2.859375 -6.078125 Z M 4.453125 -6.078125 "/></g></g></g></svg>